<svg width="60" height="60" viewBox="0 0 60 60" fill="none" xmlns="http://www.w3.org/2000/svg">
<mask id="mask0_133_97" style="mask-type:luminance" maskUnits="userSpaceOnUse" x="0" y="0" width="60" height="60">
<path d="M60 0H0V60H60V0Z" fill="white"/>
</mask>
<g mask="url(#mask0_133_97)">
<path d="M42.5 30C39.6892 32.8108 28.75 41.25 28.75 41.25M42.5 30C50 22.5 50 17.5 50 10C42.5 10 37.5 10 30 17.5M42.5 30L43.688 35.94C44.5078 40.0383 43.225 44.275 40.2695 47.2305L37.3435 50.1565C36.169 51.331 34.197 51.0548 33.3905 49.6028L28.75 41.25M28.75 41.25L18.75 31.25M30 17.5L18.75 31.25M30 17.5L24.0599 16.312C19.9616 15.4923 15.7249 16.7751 12.7696 19.7304L9.84357 22.6564C8.66912 23.8309 8.94532 25.803 10.3972 26.6095L18.75 31.25M38.75 21.2512L36.25 23.7512M7.5 52.5L15.9806 50.804C18.3177 50.3365 20 48.2845 20 45.901V45C20 42.2385 17.7614 40 15 40H14.099C11.7156 40 9.66355 41.6822 9.19613 44.0195L7.5 52.5Z" stroke="black" stroke-width="5" stroke-linecap="round" stroke-linejoin="round"/>
</g>
</svg>
